<svg width="353" height="202" viewBox="0 0 353 202" fill="none" xmlns="http://www.w3.org/2000/svg">
<g clip-path="url(#clip0_23_4)">
<path d="M70.896 54.992L52.968 98.696L39.072 102.368L18.84 53.12L11.424 49.592L14.016 44.408H42.384V48.944L34.104 53.552L49.008 90.056L63.264 54.992L52.68 49.592L55.344 44.408H78.96V48.944L70.896 54.992ZM98.0828 61.328C103.267 61.328 107.275 63.296 110.107 67.232C112.987 71.12 114.379 76.616 114.283 83.72H88.5788C89.1068 86.264 90.0908 88.304 91.5308 89.84C92.9708 91.328 94.8428 92.072 97.1468 92.072C100.555 92.072 105.523 90.608 112.051 87.68L114.211 92.144L103.843 100.496C100.819 101.312 97.1948 101.72 92.9708 101.72C89.3708 101.72 86.1308 100.904 83.2508 99.272C80.3708 97.592 78.1148 95.312 76.4828 92.432C74.8988 89.552 74.1068 86.336 74.1068 82.784C74.1068 78.944 75.3548 75.392 77.8508 72.128C80.3468 68.816 83.4668 66.2 87.2108 64.28C90.9548 62.312 94.5788 61.328 98.0828 61.328ZM94.1948 70.328C92.2268 70.328 90.7388 71 89.7308 72.344C88.7708 73.64 88.2428 75.656 88.1468 78.392H100.963C100.675 75.656 100.027 73.64 99.0188 72.344C98.0108 71 96.4028 70.328 94.1948 70.328ZM144.033 101H120.417V96.392L126.825 90.92V75.584L120.417 71.336V66.8L135.033 60.68H140.145V93.656L146.625 95.744L144.033 101ZM133.449 38.936C135.705 38.936 137.529 39.656 138.921 41.096C140.361 42.488 141.081 44.216 141.081 46.28C141.081 47.768 140.553 49.16 139.497 50.456C138.489 51.704 137.193 52.712 135.609 53.48C134.073 54.248 132.585 54.632 131.145 54.632C128.937 54.632 127.089 53.936 125.601 52.544C124.161 51.104 123.441 49.352 123.441 47.288C123.441 45.8 123.945 44.432 124.953 43.184C126.009 41.888 127.329 40.856 128.913 40.088C130.497 39.32 132.009 38.936 133.449 38.936ZM172.336 101H148.72V96.392L155.128 90.92V53.048L148.72 48.8V44.192L163.336 38.144H168.448V93.656L174.928 95.744L172.336 101Z" fill="white"/>
<path d="M20.336 118.032H21.424V120.624C21.424 123.824 19.696 126.944 17.408 128.16L16.592 127.104C18.688 126.048 20.336 123.264 20.336 120.624V118.032ZM20.576 118.032H21.648V120.624C21.648 123.168 23.264 125.808 25.312 126.832L24.496 127.888C22.256 126.688 20.576 123.728 20.576 120.624V118.032ZM26.576 116.784H27.92V131.248H26.576V116.784ZM27.6 122.64H30.288V123.76H27.6V122.64ZM41.4068 116.784H42.7348V125.52H41.4068V116.784ZM42.3348 120.4H44.8788V121.504H42.3348V120.4ZM32.1428 123.6H33.2788C35.9028 123.6 37.7748 123.52 40.0308 123.12L40.1428 124.224C37.8548 124.608 35.9508 124.704 33.2788 124.704H32.1428V123.6ZM32.1108 117.68H38.6228V121.616H33.4388V124.304H32.1428V120.576H37.3108V118.768H32.1108V117.68ZM38.1108 125.968C41.0708 125.968 42.8628 126.928 42.8628 128.592C42.8628 130.272 41.0708 131.232 38.1108 131.232C35.1668 131.232 33.3588 130.272 33.3588 128.592C33.3588 126.928 35.1668 125.968 38.1108 125.968ZM38.1108 127.008C35.9508 127.008 34.6548 127.584 34.6548 128.592C34.6548 129.616 35.9508 130.192 38.1108 130.192C40.2708 130.192 41.5828 129.616 41.5828 128.592C41.5828 127.584 40.2708 127.008 38.1108 127.008ZM47.8855 123.536H57.8215V124.624H47.8855V123.536ZM46.2375 128.32H59.3415V129.44H46.2375V128.32ZM52.0935 124H53.4215V128.768H52.0935V124ZM47.8855 117.936H57.6775V119.024H49.2135V124.016H47.8855V117.936ZM62.5703 128.281V129.445C62.5703 129.919 62.4505 130.419 62.2109 130.945C61.9714 131.477 61.6354 131.919 61.2031 132.273L60.3828 131.703C60.5495 131.474 60.6901 131.24 60.8047 131C60.9193 130.766 61.0052 130.521 61.0625 130.266C61.125 130.016 61.1562 129.75 61.1562 129.469V128.281H62.5703ZM77.9693 116.768H79.2973V127.424H77.9693V116.768ZM78.8813 121.168H81.4413V122.272H78.8813V121.168ZM70.2893 129.84H79.9533V130.928H70.2893V129.84ZM70.2893 126.336H71.6173V130.272H70.2893V126.336ZM72.1133 117.792C74.2733 117.792 75.8893 119.28 75.8893 121.36C75.8893 123.456 74.2733 124.928 72.1133 124.928C69.9533 124.928 68.3372 123.456 68.3372 121.36C68.3372 119.28 69.9533 117.792 72.1133 117.792ZM72.1133 118.96C70.7053 118.96 69.6332 119.952 69.6332 121.36C69.6332 122.784 70.7053 123.76 72.1133 123.76C73.5213 123.76 74.5933 122.784 74.5933 121.36C74.5933 119.952 73.5213 118.96 72.1133 118.96ZM90.464 120.768H94.112V121.856H90.464V120.768ZM93.36 116.8H94.688V127.392H93.36V116.8ZM85.456 129.84H95.088V130.928H85.456V129.84ZM85.456 126.464H86.784V130.4H85.456V126.464ZM86.48 118.592H87.568V119.76C87.568 122.384 85.936 124.656 83.52 125.552L82.832 124.496C84.992 123.728 86.48 121.808 86.48 119.76V118.592ZM86.736 118.592H87.808V119.744C87.808 121.616 89.216 123.44 91.312 124.176L90.64 125.216C88.288 124.368 86.736 122.192 86.736 119.744V118.592ZM83.248 117.968H90.976V119.04H83.248V117.968ZM99.1668 123.536H109.103V124.624H99.1668V123.536ZM97.5188 128.32H110.623V129.44H97.5188V128.32ZM103.375 124H104.703V128.768H103.375V124ZM99.1668 117.936H108.959V119.024H100.495V124.016H99.1668V117.936ZM113.852 128.281V129.445C113.852 129.919 113.732 130.419 113.492 130.945C113.253 131.477 112.917 131.919 112.484 132.273L111.664 131.703C111.831 131.474 111.971 131.24 112.086 131C112.201 130.766 112.286 130.521 112.344 130.266C112.406 130.016 112.438 129.75 112.438 129.469V128.281H113.852ZM123.555 128.273L126.906 118.625H128.539L124.328 130H123.164L123.555 128.273ZM120.422 118.625L123.742 128.273L124.156 130H122.992L118.789 118.625H120.422ZM133.016 130.156C132.427 130.156 131.893 130.057 131.414 129.859C130.94 129.656 130.531 129.372 130.188 129.008C129.849 128.643 129.589 128.211 129.406 127.711C129.224 127.211 129.133 126.664 129.133 126.07V125.742C129.133 125.055 129.234 124.443 129.438 123.906C129.641 123.365 129.917 122.906 130.266 122.531C130.615 122.156 131.01 121.872 131.453 121.68C131.896 121.487 132.354 121.391 132.828 121.391C133.432 121.391 133.953 121.495 134.391 121.703C134.833 121.911 135.195 122.203 135.477 122.578C135.758 122.948 135.966 123.385 136.102 123.891C136.237 124.391 136.305 124.938 136.305 125.531V126.18H129.992V125H134.859V124.891C134.839 124.516 134.76 124.151 134.625 123.797C134.495 123.443 134.286 123.151 134 122.922C133.714 122.693 133.323 122.578 132.828 122.578C132.5 122.578 132.198 122.648 131.922 122.789C131.646 122.924 131.409 123.128 131.211 123.398C131.013 123.669 130.859 124 130.75 124.391C130.641 124.781 130.586 125.232 130.586 125.742V126.07C130.586 126.471 130.641 126.849 130.75 127.203C130.865 127.552 131.029 127.859 131.242 128.125C131.461 128.391 131.724 128.599 132.031 128.75C132.344 128.901 132.698 128.977 133.094 128.977C133.604 128.977 134.036 128.872 134.391 128.664C134.745 128.456 135.055 128.177 135.32 127.828L136.195 128.523C136.013 128.799 135.781 129.062 135.5 129.312C135.219 129.562 134.872 129.766 134.461 129.922C134.055 130.078 133.573 130.156 133.016 130.156ZM139.562 121.547V130H138.109V121.547H139.562ZM138 119.305C138 119.07 138.07 118.872 138.211 118.711C138.357 118.549 138.57 118.469 138.852 118.469C139.128 118.469 139.339 118.549 139.484 118.711C139.635 118.872 139.711 119.07 139.711 119.305C139.711 119.529 139.635 119.721 139.484 119.883C139.339 120.039 139.128 120.117 138.852 120.117C138.57 120.117 138.357 120.039 138.211 119.883C138.07 119.721 138 119.529 138 119.305ZM143.453 118V130H142V118H143.453ZM146.112 118.368H152.656V119.44H146.112V118.368ZM148.368 122.496H149.68V127.392H148.368V122.496ZM152.112 118.368H153.408V119.136C153.408 120.32 153.408 122.208 152.992 124.896L151.68 124.768C152.112 122.16 152.112 120.304 152.112 119.136V118.368ZM155.232 116.784H156.544V131.248H155.232V116.784ZM156.192 122.832H158.864V123.952H156.192V122.832ZM145.472 128.096L145.312 126.976C147.936 126.976 151.424 126.928 154.352 126.56L154.416 127.536C151.424 128.016 148.032 128.08 145.472 128.096ZM174.047 116.784H175.375V125.488H174.047V116.784ZM175.007 120.624H177.519V121.728H175.007V120.624ZM166.287 126.304H175.375V131.056H166.287V126.304ZM174.079 127.376H167.583V129.984H174.079V127.376ZM164.191 118.304H172.735V119.392H164.191V118.304ZM168.463 120.096C170.527 120.096 171.919 121.12 171.919 122.688C171.919 124.256 170.527 125.248 168.463 125.248C166.383 125.248 164.991 124.256 164.991 122.688C164.991 121.12 166.383 120.096 168.463 120.096ZM168.463 121.12C167.135 121.12 166.255 121.728 166.255 122.688C166.255 123.632 167.135 124.24 168.463 124.24C169.759 124.24 170.655 123.632 170.655 122.688C170.655 121.728 169.759 121.12 168.463 121.12ZM167.791 116.656H169.119V118.864H167.791V116.656ZM181.294 118.512H182.414C182.414 121.616 181.998 125.024 179.934 127.84L178.894 127.232C180.878 124.656 181.294 121.632 181.294 118.608V118.512ZM179.198 118.512H181.95V119.616H179.198V118.512ZM184.478 118.512H185.614C185.614 121.568 185.422 125.632 183.15 128.768L182.094 128.16C184.302 125.28 184.478 121.52 184.478 118.624V118.512ZM182.894 118.512H185.182V119.616H182.894V118.512ZM189.934 116.784H191.214V131.248H189.934V116.784ZM184.942 122.464H187.534V123.552H184.942V122.464ZM187.262 117.152H188.51V130.512H187.262V117.152ZM193.922 129.234C193.922 128.99 193.997 128.784 194.148 128.617C194.305 128.445 194.529 128.359 194.82 128.359C195.112 128.359 195.333 128.445 195.484 128.617C195.641 128.784 195.719 128.99 195.719 129.234C195.719 129.474 195.641 129.677 195.484 129.844C195.333 130.01 195.112 130.094 194.82 130.094C194.529 130.094 194.305 130.01 194.148 129.844C193.997 129.677 193.922 129.474 193.922 129.234ZM26.704 135.784H28.032V144.376H26.704V135.784ZM27.648 139.544H30.16V140.648H27.648V139.544ZM23.408 144.68C26.336 144.68 28.16 145.72 28.16 147.464C28.16 149.208 26.336 150.232 23.408 150.232C20.48 150.232 18.656 149.208 18.656 147.464C18.656 145.72 20.48 144.68 23.408 144.68ZM23.408 145.768C21.264 145.768 19.952 146.376 19.952 147.464C19.952 148.52 21.264 149.144 23.408 149.144C25.552 149.144 26.864 148.52 26.864 147.464C26.864 146.376 25.552 145.768 23.408 145.768ZM17.44 142.152H18.56C21.552 142.152 23.232 142.056 25.168 141.656L25.328 142.744C23.328 143.144 21.616 143.24 18.56 143.24H17.44V142.152ZM17.44 136.888H23.824V137.976H18.752V142.856H17.44V136.888ZM42.0308 135.8H43.3748V146.392H42.0308V135.8ZM34.0788 148.84H43.8068V149.928H34.0788V148.84ZM34.0788 145.416H35.3908V149.352H34.0788V145.416ZM35.2788 136.584H36.3828V138.056C36.3828 140.872 34.7828 143.336 32.3508 144.328L31.6628 143.256C33.8388 142.408 35.2788 140.296 35.2788 138.056V136.584ZM35.5188 136.584H36.6068V138.056C36.6068 140.232 38.0628 142.2 40.2228 142.984L39.5188 144.056C37.1188 143.128 35.5188 140.808 35.5188 138.056V136.584ZM50.9255 136.824C53.1815 136.824 54.7975 138.216 54.7975 140.232C54.7975 142.264 53.1815 143.656 50.9255 143.656C48.6695 143.656 47.0375 142.264 47.0375 140.232C47.0375 138.216 48.6695 136.824 50.9255 136.824ZM50.9255 137.976C49.4215 137.976 48.3335 138.888 48.3335 140.232C48.3335 141.576 49.4215 142.504 50.9255 142.504C52.4135 142.504 53.5015 141.576 53.5015 140.232C53.5015 138.888 52.4135 137.976 50.9255 137.976ZM56.6855 135.768H58.0135V150.264H56.6855V135.768ZM46.4935 147.096L46.3015 145.992C48.9415 145.992 52.5895 145.976 55.7415 145.48L55.8535 146.456C52.6055 147.08 49.0695 147.096 46.4935 147.096ZM75.901 135.784H77.181V150.248H75.901V135.784ZM73.565 141.592H76.333V142.68H73.565V141.592ZM69.821 137.64H71.101C71.101 141.368 69.821 144.824 65.693 147.144L64.909 146.2C68.541 144.168 69.821 141.24 69.821 137.896V137.64ZM65.469 137.64H70.269V138.744H65.469V137.64ZM72.685 136.168H73.949V149.544H72.685V136.168ZM90.1558 135.8H91.4998V146.36H90.1558V135.8ZM82.2038 148.84H91.9318V149.928H82.2038V148.84ZM82.2038 145.272H83.5158V149.208H82.2038V145.272ZM83.7398 136.792C85.8998 136.792 87.4998 138.264 87.4998 140.36C87.4998 142.44 85.8998 143.928 83.7398 143.928C81.5798 143.928 79.9638 142.44 79.9638 140.36C79.9638 138.264 81.5798 136.792 83.7398 136.792ZM83.7398 137.944C82.3318 137.944 81.2598 138.936 81.2598 140.36C81.2598 141.768 82.3318 142.76 83.7398 142.76C85.1478 142.76 86.2198 141.768 86.2198 140.36C86.2198 138.936 85.1478 137.944 83.7398 137.944ZM106.043 139.528H109.307V140.632H106.043V139.528ZM108.891 135.784H110.219V144.408H108.891V135.784ZM105.467 144.84C108.443 144.84 110.283 145.848 110.283 147.544C110.283 149.256 108.443 150.232 105.467 150.232C102.475 150.232 100.635 149.256 100.635 147.544C100.635 145.848 102.475 144.84 105.467 144.84ZM105.467 145.88C103.291 145.88 101.963 146.488 101.963 147.544C101.963 148.584 103.291 149.192 105.467 149.192C107.643 149.192 108.971 148.584 108.971 147.544C108.971 146.488 107.643 145.88 105.467 145.88ZM102.011 137.24H103.099V138.408C103.099 141.08 101.467 143.368 99.0673 144.264L98.3793 143.208C100.523 142.424 102.011 140.488 102.011 138.408V137.24ZM102.267 137.24H103.339V138.408C103.339 140.28 104.747 142.072 106.843 142.808L106.171 143.864C103.819 143.016 102.267 140.84 102.267 138.408V137.24ZM98.7793 136.84H106.507V137.928H98.7793V136.84ZM113.05 147.304H126.154V148.408H113.05V147.304ZM118.906 143.848H120.234V147.624H118.906V143.848ZM114.586 136.808H115.898V139.384H123.274V136.808H124.586V144.2H114.586V136.808ZM115.898 140.456V143.112H123.274V140.456H115.898ZM129.529 140.12H139.353V141.208H129.529V140.12ZM127.753 143.144H140.873V144.232H127.753V143.144ZM129.529 136.312H130.841V140.664H129.529V136.312ZM129.433 148.808H139.433V149.896H129.433V148.808ZM129.433 145.672H130.745V149.096H129.433V145.672ZM146.44 144.072H159.56V145.16H146.44V144.072ZM152.296 144.744H153.608V150.248H152.296V144.744ZM152.968 136.36C155.992 136.36 158.024 137.592 158.024 139.528C158.024 141.464 155.992 142.696 152.968 142.696C149.96 142.696 147.912 141.464 147.912 139.528C147.912 137.592 149.96 136.36 152.968 136.36ZM152.968 137.432C150.76 137.432 149.256 138.248 149.256 139.528C149.256 140.808 150.76 141.624 152.968 141.624C155.176 141.624 156.664 140.808 156.664 139.528C156.664 138.248 155.176 137.432 152.968 137.432ZM171.703 135.768H173.031V150.264H171.703V135.768ZM162.007 145.672H163.207C165.623 145.672 167.783 145.576 170.343 145.16L170.487 146.248C167.863 146.68 165.687 146.776 163.207 146.776H162.007V145.672ZM161.975 137.128H168.663V142.296H163.335V146.088H162.007V141.208H167.319V138.216H161.975V137.128ZM185.67 135.768H187.014V150.248H185.67V135.768ZM186.646 141.64H189.318V142.744H186.646V141.64ZM181.974 137.336H183.27C183.27 141.448 181.382 145.16 176.71 147.512L175.974 146.488C179.974 144.456 181.974 141.368 181.974 137.544V137.336ZM176.646 137.336H182.662V138.424H176.646V137.336ZM198.405 137.848H199.477V140.2C199.477 143.256 197.637 146.328 195.333 147.464L194.565 146.408C196.661 145.416 198.405 142.696 198.405 140.2V137.848ZM198.661 137.848H199.733V140.2C199.733 142.648 201.477 145.144 203.605 146.056L202.853 147.112C200.517 146.024 198.661 143.208 198.661 140.2V137.848ZM195.045 137.256H203.125V138.376H195.045V137.256ZM205.077 135.784H206.405V150.248H205.077V135.784ZM219.812 135.784H221.14V143.32H219.812V135.784ZM211.78 144.056H221.14V147.464H213.108V149.448H211.812V146.488H219.828V145.112H211.78V144.056ZM211.812 149.048H221.636V150.088H211.812V149.048ZM215.524 136.408H216.916C216.916 140.056 214.628 142.568 210.18 143.72L209.7 142.648C213.668 141.656 215.524 139.608 215.524 137.032V136.408ZM210.34 136.408H216.18V137.48H210.34V136.408ZM215.38 138.888V139.816L209.844 140.232L209.62 139.144L215.38 138.888ZM235.027 135.784H236.307V150.248H235.027V135.784ZM228.755 141.688H232.403V142.76H228.755V141.688ZM232.019 136.152H233.267V149.512H232.019V136.152ZM228.931 137.608H230.211C230.211 141.4 228.691 144.808 224.787 147.128L224.003 146.184C227.411 144.136 228.931 141.256 228.931 137.848V137.608ZM224.643 137.608H229.427V138.696H224.643V137.608ZM241.938 143.224H243.25V147.56H241.938V143.224ZM247.282 143.224H248.61V147.56H247.282V143.224ZM238.738 147.304H251.842V148.408H238.738V147.304ZM245.266 136.696C248.322 136.696 250.514 138.152 250.514 140.424C250.514 142.68 248.322 144.136 245.266 144.136C242.194 144.136 240.002 142.68 240.002 140.424C240.002 138.152 242.194 136.696 245.266 136.696ZM245.266 137.752C242.946 137.752 241.282 138.808 241.282 140.424C241.282 142.024 242.946 143.08 245.266 143.08C247.586 143.08 249.234 142.024 249.234 140.424C249.234 138.808 247.586 137.752 245.266 137.752Z" fill="black" fill-opacity="0.35"/>
</g>
<defs>
<clipPath id="clip0_23_4">
<rect width="353" height="202" fill="white"/>
</clipPath>
</defs>
</svg>
